<svg xmlns="http://www.w3.org/2000/svg" viewBox="0 0 141 141"><g id="Layer_2" data-name="Layer 2"><g id="Layer_1-2" data-name="Layer 1"><path d="M0,0V141H73.2c0-5.26,0-10.51,0-15.76q0-17.42,0-34.82V88.66h-19V66.91H73l.24-.27c0-6.15-.06-12.3.09-18.45.2-8.15,2.93-15.31,9.21-20.76a21.71,21.71,0,0,1,11.66-5.26,83.07,83.07,0,0,1,11.9-.58c3.8.1,7.58.71,11.36,1.16a1.24,1.24,0,0,1,.83.86c0,5.8,0,11.6,0,17.56l-1.78.09c-3.78.16-7.58.15-11.34.53-4.21.41-7.25,3.4-8.17,7.67a19.4,19.4,0,0,0-.32,3.89c0,4.48,0,9,0,13.6h20.58c-.24,1.93-.42,3.68-.68,5.41-.54,3.6-1.14,7.19-1.71,10.78-.22,1.43-.43,2.85-.59,4.28-.12,1-.59,1.24-1.54,1.23-5.08,0-10.15,0-15.23,0-.19,0-.38,0-.83.06v50.86c0,.48,0,1,0,1.45H141V0Z"/></g></g></svg>