<svg xmlns="http://www.w3.org/2000/svg" viewBox="0 0 138.55 137.96"><g id="Layer_2" data-name="Layer 2"><g id="Layer_1-2" data-name="Layer 1"><g id="ZIH6Oo"><path d="M0,138l3.3-13.12q4.2-16.68,8.43-33.35A5.5,5.5,0,0,1,13,89.07Q48.58,53.46,84.17,17.9a4.11,4.11,0,0,1,.45-.35l36.17,36.21c-2.73,2.61-5.68,5.33-8.52,8.16Q81.13,93,50,124.06a10.93,10.93,0,0,1-4.79,2.59c-14.51,3.78-29.06,7.42-43.6,11.1A13.54,13.54,0,0,1,0,138ZM46.73,113.1c19.92-19.91,40-40,59.94-59.94-2.25-2.28-4.76-4.8-7-7.1L41.44,104.23ZM34,96.69l58.13-58-7.2-7.47q-30,30.07-60,60.11Zm4.31,21.67c-3-8.14-12.28-17.25-18.63-18.36-1.44,5.86-2.89,11.71-4.3,17.58a3.06,3.06,0,0,0-.05,2c1.62,2.65,4.1,3.52,7.2,2.72.31-.08.62-.13.92-.2Z"/><path d="M124,50.17,87.8,14C92.37,9.5,97,4.8,101.84.43c.83-.75,3-.35,4.41-.07,17,3.26,29.28,16,32.18,33.21a4.36,4.36,0,0,1-1.58,4.64C132.46,42.17,128.19,46.26,124,50.17Zm0-13.63a40.16,40.16,0,0,0,3.29-3.36,2.91,2.91,0,0,0,.54-2.26c-3.2-10.45-10-17.37-20.51-20.59a2.75,2.75,0,0,0-2.12.31c-1.39,1-2.62,2.25-3.8,3.3Z"/></g></g></g></svg>