<svg xmlns="http://www.w3.org/2000/svg" viewBox="0 0 108.45 140.33"><g id="Layer_2" data-name="Layer 2"><g id="Layer_1-2" data-name="Layer 1"><g id="dVV0SR"><path d="M38.69,72.71a41.68,41.68,0,1,1,11,7.19l-6.17,9.44c-9.55,14.61-19,29.25-28.67,43.81a54.63,54.63,0,0,1-5.38,6.32,2.23,2.23,0,0,1-3.37.19,51,51,0,0,0-4.95-3.27A1.73,1.73,0,0,1,.18,134a53.81,53.81,0,0,1,3.62-7.76q16.91-26.14,34-52.15C38.11,73.65,38.4,73.17,38.69,72.71ZM66.78,77A35.24,35.24,0,1,0,31.53,41.67,35.37,35.37,0,0,0,66.78,77Z"/><path d="M78.11,18.94c-1.26.48-2.46,1-3.7,1.37a1.9,1.9,0,0,1-1.28-.3,19.65,19.65,0,0,0-28.5,10.4,3.15,3.15,0,0,1-1.46,1.47A20.26,20.26,0,0,1,40.25,33c.29-6.12,5.66-13.82,12.48-17.13C62.64,11.05,73,14.15,78.11,18.94Z"/></g></g></g></svg>