<svg xmlns="http://www.w3.org/2000/svg" viewBox="0 0 102.49 140.21"><g id="Layer_2" data-name="Layer 2"><g id="Layer_1-2" data-name="Layer 1"><g id="qIZnKV"><path d="M5.18,32.81h92.4c0,.67.14,1.49.12,2.3q-1.07,36.24-2.15,72.48-.35,11.39-.7,22.79c-.19,6.47-3.57,9.81-10,9.82q-33.34,0-66.67,0a13.58,13.58,0,0,1-3.18-.33c-4.28-1-6.73-3.86-6.88-8.25q-1-30.39-1.9-60.78-.52-17.53-1-35.06C5.15,34.82,5.18,33.86,5.18,32.81Zm13.55,53q0,18.42,0,36.82c0,2.31,1,3.92,3.32,3.87,2.19-.06,3.12-1.67,3.12-3.82,0-24.64,0-49.29-.07-73.93a5,5,0,0,0-1.47-3.23c-.59-.55-2.41-.77-2.84-.32a6.35,6.35,0,0,0-2,3.8C18.67,61.28,18.73,73.55,18.73,85.82Zm59.08-.25c0,12.17,0,24.34,0,36.51,0,2.3.42,4.19,3,4.48,2.07.23,3.34-1.58,3.34-4.51q0-36.37,0-72.74c0-3-1.21-4.65-3.36-4.43-2.67.27-3,2.21-3,4.46C77.83,61.41,77.8,73.49,77.81,85.57Zm-13.47.16h.06q0-13.59,0-27.17c0-3.51,0-7-.07-10.52,0-1.92-1.23-3.41-3.08-3.06-1.17.22-2.16,1.75-3.06,2.83-.3.35-.09,1.13-.09,1.72q0,35.94,0,71.89c0,1-.15,2.15.34,2.82.71,1,2,2.21,2.95,2.15S63.47,125,64.21,124c.38-.51.13-1.51.13-2.29ZM38.6,85.65h0q0,18.27,0,36.53c0,.58-.2,1.35.09,1.72.78,1,1.81,2.55,2.67,2.51,1.1,0,2.3-1.32,3.11-2.35.45-.55.19-1.69.19-2.56q.08-28.92.11-57.84c0-5.07.06-10.14-.15-15.19a4.7,4.7,0,0,0-1.84-3.22,3.19,3.19,0,0,0-3.07.48,5.28,5.28,0,0,0-1.05,3.4C38.58,61.31,38.6,73.48,38.6,85.65Z"/><path d="M29.73,14.38c-.07-1.55-.24-2.9-.18-4.23.17-3.8,2.11-5.64,5.92-5.68,2.82,0,5.65,0,8.48,0A2.71,2.71,0,0,0,46.6,3c1-1.47,3.1-3,4.75-3S55,1.47,56.21,2.85c.92,1,1.52,1.7,2.95,1.63,2.43-.11,4.87,0,7.31,0,5.18,0,7,1.91,6.8,7.12,0,.78-.09,1.56-.16,2.64.86,0,1.68.15,2.51.15,7,0,14,0,21.06,0,4.09,0,5.87,1.85,5.81,5.88,0,.78,0,1.56,0,2.34,0,4.74-1.72,6.43-6.52,6.43q-44.31,0-88.62,0c-2.65,0-5.44,0-6.41-2.87C-.17,23-.63,19.37,1.45,16.4c.81-1.16,3-1.88,4.52-1.93,6.92-.2,13.84-.09,20.77-.09Z"/></g></g></g></svg>