<svg xmlns="http://www.w3.org/2000/svg" viewBox="0 0 141 141"><g id="Layer_2" data-name="Layer 2"><g id="Layer_1-2" data-name="Layer 1"><path d="M0,0V141H141V0ZM112.14,49.14l-.06.33v4.82a2.2,2.2,0,0,1,0,.36c.14.16.18.3,0,.41-.14,1.41-.26,2.83-.41,4.24-.11,1-.22,2.07-.41,3.1a53.31,53.31,0,0,1-1.77,7.23c-.36,1-.65,2.11-1,3.14A63.92,63.92,0,0,1,101.82,86a60.19,60.19,0,0,1-9.31,11.14A57.45,57.45,0,0,1,81,105.53a55.92,55.92,0,0,1-11.23,4.73c-1.84.54-3.72,1-5.6,1.39-1.49.33-3,.59-4.53.79-1.28.18-2.58.25-3.88.34-1,.07-1.93.1-2.89.15h-2.6l-1.94-.06h-.16c-1.06-.07-2.12-.11-3.17-.22-1.3-.14-2.61-.31-3.9-.51-.88-.13-1.75-.35-2.62-.53-.38-.07-.77-.12-1.14-.22-1.46-.39-2.93-.77-4.37-1.22a58.92,58.92,0,0,1-12-5.28c-.79-.45-1.58-.93-2.37-1.39l-.22-.15,3.11.22h4c1.33-.13,2.67-.25,4-.39a36.07,36.07,0,0,0,6.25-1.35A41.37,41.37,0,0,0,46.31,97c1.11-.7,2.18-1.49,3.27-2.24l.43-.35A20.73,20.73,0,0,1,37.67,90.2,21.42,21.42,0,0,1,30,79.57a21.93,21.93,0,0,0,9.5-.37l-1.74-.5a21,21,0,0,1-7.71-4.21A21.4,21.4,0,0,1,24.89,68a21.86,21.86,0,0,1-1.65-4.29,19.89,19.89,0,0,1-.67-5.15,3,3,0,0,0,0-.52.1.1,0,0,0,.06-.05c.84.4,1.66.83,2.52,1.18a13.85,13.85,0,0,0,2.27.7c1.3.29,2.63.5,3.95.73a3.2,3.2,0,0,0,.62,0l0-.1-.28-.24a21.33,21.33,0,0,1-6.78-7.94,23.09,23.09,0,0,1-1.62-4.41,18.08,18.08,0,0,1-.57-4.2c0-.79,0-1.59,0-2.38V41c.15-1,.28-1.93.47-2.88a19.84,19.84,0,0,1,1.92-5.29c.14-.28.29-.54.47-.86.4.47.74.92,1.13,1.32,1.74,1.81,3.43,3.67,5.26,5.38a58,58,0,0,0,11.05,8,58.51,58.51,0,0,0,10.59,4.68c1.61.53,3.26,1,4.91,1.39s3.22.75,4.85,1c1.21.21,2.45.29,3.68.42.78.09,1.56.16,2.35.22.07,0,.19-.12.22-.21a.89.89,0,0,0,0-.32l0-.11,0-.21,0-.16c0-.22-.07-.43-.1-.64s0-.28-.07-.42l-.09-.89-.06-.64c0-.57,0-1.14,0-1.7V48.9c0-.27,0-.54,0-.81l0-.32v-.15l0-.1,0-.4,0-.26,0-.22,0-.07,0,0c0-.16,0-.32.08-.48a.14.14,0,0,1,0-.06l0,0c.19-.85.34-1.71.58-2.54a21.45,21.45,0,0,1,13.8-14.32,16,16,0,0,1,4-.87c1.3-.09,2.6-.13,3.9-.19h.1c1.37.2,2.78.3,4.12.63a20.44,20.44,0,0,1,8.56,4.44c.49.42,1,.86,1.42,1.33a.74.74,0,0,0,.78.23,40.3,40.3,0,0,0,8.69-2.82c1.27-.58,2.5-1.26,3.75-1.89l.53-.29c.18.8-1.65,4.38-3.41,6.65a23.1,23.1,0,0,1-5.54,5,41.76,41.76,0,0,0,11.89-3.26C122.25,39.77,115.93,46.39,112.14,49.14Z"/></g></g></svg>